<svg width="32" height="32" viewBox="0 0 32 32" fill="none" xmlns="http://www.w3.org/2000/svg">
<path d="M22.5122 2.00461L22.5119 2.00461L19.3938 2H19.3923C17.4375 2 15.7326 2.59977 14.5083 3.75684C13.2784 4.91933 12.6254 6.55841 12.6254 8.45069V9.96382H10.4903C9.74536 9.96382 9 10.5387 9 11.4157V15.0569C9 15.9348 9.74665 16.5085 10.4903 16.5085H12.6254V28.5484C12.6254 29.426 13.3715 30 14.1157 30H18.2061C18.9507 30 19.6964 29.4254 19.6964 28.5484V16.5085H22.3621C23.1062 16.5085 23.8522 15.9347 23.8524 15.0573C23.8524 15.0572 23.8524 15.057 23.8524 15.0569L23.8539 11.4161V11.4157C23.8539 11.002 23.6744 10.6255 23.3888 10.3617L22.7103 11.0963L23.3888 10.3617C23.1037 10.0984 22.7331 9.96382 22.3634 9.96382H19.6964V8.83341C19.6964 8.6107 19.712 8.47835 19.7314 8.39933C19.7343 8.38785 19.7369 8.37862 19.7392 8.37135C19.7939 8.34739 19.9704 8.28963 20.4095 8.28963H20.4098L22.51 8.28894C22.5101 8.28894 22.5102 8.28894 22.5103 8.28894C23.2549 8.28877 24 7.71393 24 6.83733V3.45622C24 2.57954 23.255 2.00588 22.5122 2.00461Z" stroke="#004B94" stroke-width="2" stroke-linejoin="round"/>
</svg>
