<svg width="32" height="32" viewBox="0 0 32 32" fill="none" xmlns="http://www.w3.org/2000/svg">
<path d="M20.125 4H11.875C7.52634 4 4 7.52634 4 11.875V20.125C4 24.4737 7.52634 28 11.875 28H20.125C24.4737 28 28 24.4737 28 20.125V11.875C28 7.52634 24.4737 4 20.125 4Z" stroke="#004B94" stroke-width="2"/>
<path d="M16 11C13.2387 11 11 13.2387 11 16C11 18.7613 13.2387 21 16 21C18.7613 21 21 18.7613 21 16C21 13.2387 18.7613 11 16 11Z" stroke="#004B94" stroke-width="2" stroke-linejoin="round"/>
<path d="M22.5 11C21.6732 11 21 10.3268 21 9.5C21 8.6726 21.6732 8 22.5 8C23.3268 8 24 8.6726 24 9.5C24 10.3268 23.3268 11 22.5 11Z" fill="#004B94"/>
</svg>
