<svg width="32" height="32" viewBox="0 0 32 32" fill="none" xmlns="http://www.w3.org/2000/svg">
<path d="M27.8454 8.7835C28.0824 8.40831 28.0439 7.92175 27.7506 7.58859C27.5847 7.40007 27.3597 7.2862 27.1227 7.25685C27.207 7.05791 27.2808 6.85294 27.3436 6.64265C27.4629 6.24293 27.3216 5.81113 26.989 5.55933C26.6564 5.30753 26.2024 5.28865 25.8501 5.51195C25.2284 5.90594 24.5533 6.20729 23.8362 6.41059C22.8709 5.53522 21.6063 5 20.2309 5C17.1308 5 14.737 7.64859 14.7237 10.769C11.7654 10.3018 9.15708 8.65699 7.32563 6.26592C7.11957 5.9969 6.79128 5.85054 6.45345 5.87707C6.11561 5.9036 5.81421 6.09943 5.65267 6.39732C5.18852 7.25331 4.91438 8.23767 4.91438 9.29723C4.91438 10.1846 5.10667 11.0306 5.45044 11.7879C5.42744 11.7988 5.40475 11.8107 5.38243 11.8235C5.07166 12.0018 4.88 12.3327 4.88 12.6909V12.691V12.6911V12.6912V12.6913V12.6914V12.6914V12.6915V12.6916V12.6917V12.6918V12.6919V12.692V12.692V12.6921V12.6922V12.6923V12.6924V12.6925V12.6926V12.6927V12.6927V12.6928V12.6929V12.693V12.6931V12.6932V12.6933V12.6934V12.6934V12.6935V12.6936V12.6937V12.6938V12.6939V12.694V12.6941V12.6942V12.6942V12.6943V12.6944V12.6945V12.6946V12.6947V12.6948V12.6949V12.695V12.6951V12.6951V12.6952V12.6953V12.6954V12.6955V12.6956V12.6957V12.6958V12.6959V12.696V12.6961V12.6961V12.6962V12.6963V12.6964V12.6965V12.6966V12.6967V12.6968V12.6969V12.697V12.6971V12.6972V12.6972V12.6973V12.6974V12.6975V12.6976V12.6977V12.6978V12.6979V12.698V12.6981V12.6982V12.6983V12.6984V12.6985V12.6985V12.6986V12.6987V12.6988V12.6989V12.699V12.6991V12.6992V12.6993V12.6994V12.6995V12.6996V12.6997V12.6998V12.6999V12.7V12.7001V12.7001V12.7002V12.7003V12.7004V12.7005V12.7006V12.7007V12.7008V12.7009V12.701V12.7011V12.7012V12.7013V12.7014V12.7015V12.7016V12.7017V12.7018V12.7019V12.702V12.7021V12.7022V12.7023V12.7023V12.7024V12.7025V12.7026V12.7027V12.7028V12.7029V12.703V12.7031V12.7032V12.7033V12.7034V12.7035V12.7036V12.7037V12.7038V12.7039V12.704V12.7041V12.7042V12.7043V12.7044V12.7045V12.7046V12.7047V12.7048V12.7049V12.705V12.7051V12.7052V12.7053V12.7054V12.7055V12.7056V12.7057V12.7058V12.7059V12.706V12.7061V12.7062V12.7063V12.7064V12.7065V12.7066V12.7067V12.7068V12.7069V12.707V12.7071V12.7072V12.7073V12.7074V12.7075V12.7076V12.7077V12.7078V12.7079V12.708V12.7081V12.7082V12.7083V12.7084V12.7085V12.7086V12.7087V12.7088V12.7089V12.709V12.7091V12.7092V12.7093V12.7094V12.7095V12.7096V12.7097V12.7098V12.7099V12.71V12.7101V12.7102V12.7103V12.7104V12.7105V12.7106V12.7107V12.7108V12.7109V12.711V12.7111V12.7112V12.7113V12.7114V12.7115V12.7116V12.7117V12.7118V12.7119V12.7121V12.7122V12.7123V12.7124V12.7125V12.7126V12.7127V12.7128V12.7129V12.713V12.7131V12.7132V12.7133V12.7134V12.7135V12.7136V12.7137V12.7138V12.7139V12.714V12.7141V12.7142V12.7143V12.7144V12.7145V12.7146V12.7147V12.7149V12.715V12.7151V12.7152V12.7153V12.7154V12.7155V12.7156V12.7157V12.7158V12.7159V12.716V12.7161V12.7162V12.7163V12.7164V12.7165V12.7166V12.7167V12.7168V12.717V12.7171V12.7172V12.7173V12.7174V12.7175V12.7176V12.7177V12.7178V12.7179V12.718V12.7181V12.7182V12.7183V12.7184V12.7185V12.7186V12.7188V12.7189V12.719V12.7191V12.7192V12.7193V12.7194V12.7195V12.7196V12.7197V12.7198V12.7199V12.72V12.7201V12.7202V12.7204V12.7205V12.7206V12.7207V12.7208V12.7209V12.721V12.7211V12.7212V12.7213V12.7214V12.7215V12.7216V12.7217V12.7219V12.722V12.7221V12.7222V12.7223V12.7224V12.7225V12.7226V12.7227V12.7228V12.7229V12.723V12.7231V12.7233V12.7234V12.7235V12.7236V12.7237V12.7238V12.7239V12.724V12.7241V12.7242V12.7243V12.7244V12.7246V12.7247V12.7248V12.7249V12.725V12.7251V12.7252V12.7253V12.7254V12.7255V12.7256V12.7258V12.7259V12.726V12.7261V12.7262V12.7263V12.7264V12.7265V12.7266V12.7267V12.7268V12.7269V12.7271V12.7272V12.7273V12.7274V12.7275V12.7276V12.7277V12.7278V12.7279V12.728V12.7282V12.7283V12.7284V12.7285V12.7286V12.7287V12.7288V12.7289V12.729V12.7291V12.7292V12.7294V12.7295V12.7296V12.7297V12.7298V12.7299V12.73V12.7301V12.7302V12.7303V12.7305V12.7306V12.7307V12.7308V12.7309V12.731V12.7311V12.7312V12.7313V12.7314V12.7316V12.7317V12.7318V12.7319V12.732V12.7321V12.7322V12.7323V12.7324V12.7325V12.7327V12.7328V12.7329V12.733V12.7331V12.7332V12.7333V12.7334V12.7335V12.7337V12.7338V12.7339V12.734V12.7341V12.7342V12.7343V12.7344V12.7345V12.7346V12.7348V12.7349V12.735V12.7351V12.7352V12.7353V12.7354V12.7355V12.7356V12.7358V12.7359V12.736V12.7361V12.7362V12.7363V12.7364V12.7365V12.7366V12.7368V12.7369V12.737V12.7371V12.7372V12.7373V12.7374V12.7375V12.7376V12.7378V12.7379V12.738V12.7381V12.7382V12.7383V12.7384V12.7385V12.7386V12.7388V12.7389V12.739V12.7391V12.7392V12.7393V12.7394V12.7395V12.7396V12.7398V12.7399V12.74V12.7401V12.7402V12.7403V12.7404V12.7405V12.7406V12.7408V12.7409V12.741V12.7411V12.7412V12.7413V12.7414V12.7415V12.7416V12.7418V12.7419V12.742V12.7421V12.7422V12.7423V12.7424V12.7425V12.7426V12.7428V12.7429V12.743V12.7431V12.7432V12.7433V12.7434V12.7435C4.88 14.4003 5.54604 15.9116 6.62382 16.9772C6.45972 17.2245 6.41239 17.5352 6.50138 17.8243C6.94969 19.2808 7.9394 20.5165 9.24272 21.2262C8.2699 21.6691 7.19928 21.9144 6.07938 21.9144C5.74091 21.9144 5.43307 21.8983 5.13471 21.8577C4.67556 21.7953 4.23366 22.0565 4.06696 22.4889C3.90025 22.9212 4.05241 23.4115 4.43461 23.6734C6.59258 25.1526 9.15621 26 11.919 26C20.9378 26 25.756 18.0613 25.756 11.358C25.756 11.307 25.7556 11.2566 25.755 11.2067C26.5739 10.5151 27.2689 9.69571 27.8454 8.7835Z" stroke="#004B94" stroke-width="2" stroke-linejoin="round"/>
</svg>
