<svg width="32" height="32" viewBox="0 0 32 32" fill="none" xmlns="http://www.w3.org/2000/svg">
<g clip-path="url(#clip0)">
<path d="M20.9254 14.562L13.8558 10.6938C13.4493 10.4714 12.9689 10.4797 12.5704 10.7158C12.1718 10.9521 11.934 11.3696 11.934 11.833V19.5029C11.934 19.9641 12.1703 20.3808 12.5663 20.6174C12.7731 20.7409 13.0023 20.8029 13.232 20.8029C13.4425 20.8029 13.6534 20.7509 13.8475 20.6464L20.9173 16.8449C21.337 16.6191 21.5989 16.1828 21.6009 15.706C21.6026 15.2292 21.3438 14.791 20.9254 14.562ZM13.8092 18.538V12.8056L19.0929 15.6967L13.8092 18.538Z" fill="#004B94"/>
<path d="M31.7645 9.59546L31.7631 9.58081C31.736 9.32324 31.4662 7.03223 30.3524 5.86694C29.0651 4.49634 27.6056 4.32983 26.9037 4.25C26.8456 4.24341 26.7924 4.2373 26.7448 4.23096L26.6889 4.2251C22.4584 3.91748 16.0695 3.87549 16.0056 3.87524L15.9999 3.875L15.9943 3.87524C15.9304 3.87549 9.54147 3.91748 5.27293 4.2251L5.21653 4.23096C5.17112 4.23706 5.12107 4.24268 5.06663 4.24902C4.37279 4.3291 2.92894 4.49585 1.63793 5.91602C0.577146 7.06885 0.270507 9.31079 0.239013 9.56274L0.235351 9.59546C0.225829 9.70264 0 12.2542 0 14.8157V17.2102C0 19.7717 0.225829 22.3232 0.235351 22.4307L0.23706 22.4468C0.264159 22.7002 0.533689 24.9492 1.64233 26.115C2.85277 27.4397 4.38328 27.615 5.20652 27.7092C5.33665 27.7241 5.44871 27.7368 5.52512 27.7502L5.5991 27.7605C8.04172 27.9929 15.7001 28.1074 16.0248 28.1121L16.0346 28.1123L16.0444 28.1121C16.1083 28.1118 22.497 28.0698 26.7274 27.7622L26.7833 27.7563C26.8368 27.7493 26.8969 27.7429 26.9628 27.7361C27.6527 27.6628 29.0888 27.5107 30.3619 26.1099C31.4227 24.9568 31.7296 22.7148 31.7609 22.4631L31.7645 22.4304C31.774 22.323 32.0001 19.7717 32.0001 17.2102V14.8157C31.9999 12.2542 31.774 9.70288 31.7645 9.59546ZM30.1246 17.2102C30.1246 19.5811 29.9176 22.0227 29.8981 22.2468C29.8185 22.8643 29.495 24.2827 28.9782 24.8445C28.1813 25.7212 27.3627 25.8081 26.765 25.8713C26.6928 25.8789 26.6259 25.8862 26.5653 25.8938C22.4735 26.1897 16.3259 26.2351 16.0427 26.2368C15.725 26.2322 8.17868 26.1167 5.81052 25.8967C5.68919 25.877 5.55808 25.8618 5.4199 25.8462C4.71898 25.7659 3.75951 25.656 3.02172 24.8445L3.00438 24.8259C2.49657 24.2969 2.18236 22.9705 2.10253 22.2542C2.08764 22.0847 1.87524 19.6143 1.87524 17.2102V14.8157C1.87524 12.4475 2.08178 10.0085 2.1018 9.77979C2.19677 9.05249 2.52636 7.71997 3.02172 7.1814C3.843 6.27808 4.70897 6.17798 5.28172 6.11182C5.3364 6.10547 5.38743 6.09961 5.43455 6.09351C9.5859 5.79614 15.7778 5.75195 15.9999 5.75024C16.2221 5.75171 22.4118 5.79614 26.5263 6.09351C26.5768 6.09985 26.632 6.1062 26.6913 6.11304C27.2804 6.18018 28.1708 6.28174 28.9879 7.15332L28.9955 7.16138C29.5033 7.69043 29.8175 9.04004 29.8973 9.77075C29.9115 9.93066 30.1246 12.4065 30.1246 14.8157V17.2102Z" fill="#004B94"/>
</g>
<defs>
<clipPath id="clip0">
<rect width="32" height="32" fill="white"/>
</clipPath>
</defs>
</svg>
