<svg width="14" height="15" viewBox="0 0 14 15" fill="none" xmlns="http://www.w3.org/2000/svg">
  <path fill-rule="evenodd" clip-rule="evenodd" d="M2.625 2.90967C2.27982 2.90967 2 3.18949 2 3.53467V12.2847C2 12.6298 2.27982 12.9097 2.625 12.9097H11.375C11.7202 12.9097 12 12.6298 12 12.2847V3.53467C12 3.18949 11.7202 2.90967 11.375 2.90967H2.625ZM2.625 1.65967H11.375C12.4105 1.65967 13.25 2.49913 13.25 3.53467V12.2847C13.25 13.3202 12.4105 14.1597 11.375 14.1597H2.625C1.58947 14.1597 0.75 13.3202 0.75 12.2847V3.53467C0.75 2.49913 1.58947 1.65967 2.625 1.65967Z" fill="#E64C66"/>
  <path fill-rule="evenodd" clip-rule="evenodd" d="M1.375 6.65967C1.02982 6.65967 0.75 6.37985 0.75 6.03467C0.75 5.68949 1.02982 5.40967 1.375 5.40967H12.625C12.9702 5.40967 13.25 5.68949 13.25 6.03467C13.25 6.37985 12.9702 6.65967 12.625 6.65967H1.375Z" fill="#E64C66"/>
  <path fill-rule="evenodd" clip-rule="evenodd" d="M8.875 1.03467C8.875 0.68949 9.15482 0.409668 9.5 0.409668C9.84518 0.409668 10.125 0.68949 10.125 1.03467V3.53467C10.125 3.87985 9.84518 4.15967 9.5 4.15967C9.15482 4.15967 8.875 3.87985 8.875 3.53467V1.03467Z" fill="#E64C66"/>
  <path fill-rule="evenodd" clip-rule="evenodd" d="M3.875 1.03467C3.875 0.68949 4.15482 0.409668 4.5 0.409668C4.84518 0.409668 5.125 0.68949 5.125 1.03467V3.53467C5.125 3.87985 4.84518 4.15967 4.5 4.15967C4.15482 4.15967 3.875 3.87985 3.875 3.53467V1.03467Z" fill="#E64C66"/>
</svg>
