<svg width="39" height="28" viewBox="0 0 39 28" fill="none" xmlns="http://www.w3.org/2000/svg">
  <path d="M0 0H0.53C5.94 4.41 11.11 9.18 16.95 13.02C18.91 14.52 21.24 13.18 22.99 12.06C28.38 8.34 33.33 4.04 38.47 0H39V27.51C32.43 23.23 25.74 19.14 19.11 14.94C12.85 19.3 6.37 23.33 0 27.54V0Z" fill="#9BA2B2"/>
  <path d="M0.530029 0H38.47C33.33 4.04 28.38 8.34 22.99 12.06C21.24 13.18 18.91 14.52 16.95 13.02C11.11 9.18 5.94003 4.41 0.530029 0Z" fill="#B2B7C3"/>
  <path d="M0 27.5399C6.37 23.3299 12.85 19.2999 19.11 14.9399C25.74 19.1399 32.43 23.2299 39 27.5099V27.9999H0V27.5399Z" fill="#8A93A5"/>
</svg>
