<svg width="16" height="16" viewBox="0 0 16 16" fill="none" xmlns="http://www.w3.org/2000/svg">
  <path d="M8 0C3.5888 0 0 3.58885 0 8.00005C0 12.4112 3.5888 16 8 16C12.4112 16 16 12.4112 16 8.00005C16 3.58885 12.4112 0 8 0ZM8 14.5455C4.39079 14.5455 1.45455 11.6092 1.45455 8.00005C1.45455 4.39088 4.39079 1.45455 8 1.45455C11.6092 1.45455 14.5455 4.39088 14.5455 8.00005C14.5455 11.6092 11.6092 14.5455 8 14.5455Z" fill="#E63B12"/>
  <path d="M8 12.6666C8.55141 12.6666 9 12.2178 9 11.6662C9 11.115 8.55141 10.6666 8 10.6666C7.44859 10.6666 7 11.115 7 11.6662C7 12.2178 7.44859 12.6666 8 12.6666Z" fill="#E63B12"/>
  <path d="M8.00002 9.33337C8.3682 9.33337 8.66669 8.99757 8.66669 8.58337L8.66669 4.08337C8.66669 3.66917 8.3682 3.33337 8.00002 3.33337C7.63184 3.33337 7.33335 3.66917 7.33335 4.08337L7.33335 8.58337C7.33335 8.99757 7.63184 9.33337 8.00002 9.33337Z" fill="#E63B12"/>
</svg>
