<svg width="156" height="43" viewBox="0 0 156 43" fill="none" xmlns="http://www.w3.org/2000/svg">
  <g clip-path="url(#clip0)">
    <path d="M150.224 43H5.77622C4.24319 42.9923 2.77565 42.4229 1.69359 41.416C0.611542 40.4091 0.00275959 39.0464 0 37.625L0 5.37501C0.00275959 3.95364 0.611542 2.59093 1.69359 1.58403C2.77565 0.577142 4.24319 0.00774546 5.77622 8.88505e-06H150.182C150.944 -0.00127565 151.7 0.136734 152.405 0.406158C153.11 0.675582 153.751 1.07114 154.291 1.57026C154.832 2.06937 155.261 2.66227 155.554 3.31509C155.847 3.96791 155.999 4.66787 156 5.37501V37.625C155.997 39.0464 155.388 40.4091 154.306 41.416C153.224 42.4229 151.757 42.9923 150.224 43Z" fill="black"/>
    <path d="M79.054 23.3861C78.0788 23.39 77.1267 23.6618 76.318 24.1671C75.5094 24.6724 74.8804 25.3886 74.5106 26.2253C74.1407 27.0619 74.0467 27.9814 74.2402 28.8675C74.4338 29.7537 74.9063 30.5668 75.5981 31.2041C76.2899 31.8414 77.1699 32.2743 78.1269 32.4481C79.0839 32.6219 80.075 32.5288 80.975 32.1805C81.8749 31.8323 82.6434 31.2446 83.1832 30.4916C83.7231 29.7386 84.0101 28.8541 84.008 27.95C84.0166 27.346 83.8941 26.7465 83.6478 26.1873C83.4015 25.628 83.0364 25.1204 82.5742 24.6946C82.112 24.2688 81.5622 23.9336 80.9575 23.7088C80.3527 23.484 79.7054 23.3743 79.054 23.3861ZM79.054 30.7254C78.4543 30.7647 77.8557 30.6356 77.3363 30.355C76.8168 30.0745 76.4005 29.6554 76.1416 29.1523C75.8826 28.6493 75.793 28.0856 75.8845 27.5347C75.9759 26.9838 76.2441 26.4712 76.6542 26.0636C77.0643 25.6561 77.5972 25.3724 78.1837 25.2496C78.7701 25.1268 79.3828 25.1706 79.942 25.3752C80.5012 25.5798 80.981 25.9357 81.319 26.3967C81.6569 26.8577 81.8373 27.4024 81.8367 27.9598C81.8551 28.3119 81.7971 28.6639 81.6663 28.995C81.5355 29.3261 81.3345 29.6295 81.0751 29.8873C80.8157 30.1451 80.5032 30.3521 80.156 30.4961C79.8089 30.64 79.4342 30.718 79.054 30.7254ZM68.1972 23.3861C67.222 23.39 66.2699 23.6618 65.4613 24.1671C64.6526 24.6724 64.0236 25.3886 63.6538 26.2253C63.284 27.0619 63.1899 27.9814 63.3835 28.8675C63.5771 29.7537 64.0496 30.5668 64.7413 31.2041C65.4331 31.8414 66.3131 32.2743 67.2701 32.4481C68.2271 32.6219 69.2182 32.5288 70.1182 32.1805C71.0182 31.8323 71.7866 31.2446 72.3265 30.4916C72.8663 29.7386 73.1533 28.8541 73.1513 27.95C73.1613 27.3456 73.0398 26.7455 72.794 26.1856C72.5482 25.6258 72.1832 25.1176 71.7207 24.6916C71.2582 24.2655 70.7078 23.9303 70.1024 23.706C69.497 23.4817 68.849 23.3729 68.1972 23.3861ZM68.1972 30.7254C67.5975 30.7647 66.999 30.6356 66.4795 30.355C65.9601 30.0745 65.5438 29.6554 65.2848 29.1523C65.0259 28.6493 64.9363 28.0856 65.0277 27.5347C65.1192 26.9838 65.3874 26.4712 65.7975 26.0636C66.2075 25.6561 66.7405 25.3724 67.3269 25.2496C67.9133 25.1268 68.526 25.1706 69.0852 25.3752C69.6444 25.5798 70.1243 25.9357 70.4622 26.3967C70.8001 26.8577 70.9805 27.4024 70.9799 27.9598C70.9968 28.3116 70.9379 28.6631 70.8066 28.9935C70.6752 29.324 70.4741 29.6269 70.215 29.8844C69.9559 30.142 69.644 30.349 69.2975 30.4934C68.951 30.6378 68.577 30.7167 68.1972 30.7254ZM55.3588 24.7836V26.7382H60.3656C60.2893 27.6472 59.8888 28.5068 59.2272 29.1813C58.7244 29.6542 58.1205 30.0245 57.4544 30.2686C56.7883 30.5126 56.0745 30.6249 55.3588 30.5984C53.8828 30.5984 52.4672 30.0548 51.4235 29.0871C50.3798 28.1194 49.7934 26.8069 49.7934 25.4384C49.7934 24.0699 50.3798 22.7574 51.4235 21.7897C52.4672 20.822 53.8828 20.2784 55.3588 20.2784C56.7629 20.2612 58.118 20.7561 59.1323 21.6563L60.608 20.2882C59.9122 19.6559 59.0883 19.1577 58.1837 18.8222C57.2792 18.4867 56.3119 18.3207 55.3377 18.3336C54.3082 18.2982 53.2816 18.4556 52.3192 18.7965C51.3567 19.1373 50.4783 19.6546 49.7365 20.3174C48.9946 20.9802 48.4045 21.7748 48.0014 22.6539C47.5984 23.5329 47.3906 24.4783 47.3906 25.4335C47.3906 26.3887 47.5984 27.3341 48.0014 28.2131C48.4045 29.0922 48.9946 29.8869 49.7365 30.5496C50.4783 31.2124 51.3567 31.7297 52.3192 32.0705C53.2816 32.4114 54.3082 32.5688 55.3377 32.5334C56.3269 32.5761 57.3145 32.4239 58.2357 32.087C59.1568 31.7501 59.9905 31.2361 60.6818 30.5788C61.4072 29.798 61.9359 28.8771 62.2294 27.8831C62.5229 26.8892 62.574 25.847 62.3788 24.8325L55.3588 24.7836ZM107.893 26.2886C107.599 25.458 107.037 24.7311 106.283 24.2067C105.529 23.6822 104.619 23.3855 103.677 23.3568C103.044 23.36 102.418 23.4821 101.838 23.7159C101.257 23.9496 100.734 24.2901 100.299 24.7167C99.8649 25.1433 99.5282 25.6472 99.3097 26.1979C99.0912 26.7486 98.9955 27.3347 99.0283 27.9207C99.0126 28.522 99.1281 29.12 99.3677 29.6789C99.6074 30.2378 99.9664 30.746 100.423 31.1732C100.88 31.6003 101.425 31.9375 102.026 32.1645C102.626 32.3915 103.27 32.5037 103.919 32.4943C104.732 32.5003 105.533 32.3184 106.251 31.9652C106.968 31.612 107.58 31.0986 108.03 30.4713L106.354 29.4354C106.101 29.8236 105.744 30.144 105.317 30.3651C104.89 30.5861 104.408 30.7002 103.919 30.6961C103.416 30.7155 102.918 30.5946 102.489 30.349C102.061 30.1033 101.722 29.7443 101.516 29.3182L108.114 26.787L107.893 26.2886ZM101.189 27.8132C101.166 27.4809 101.215 27.1477 101.332 26.833C101.45 26.5183 101.633 26.2284 101.873 25.9801C102.112 25.7319 102.402 25.5302 102.726 25.3869C103.051 25.2435 103.402 25.1614 103.761 25.1452C104.137 25.1222 104.511 25.2027 104.837 25.3766C105.164 25.5505 105.427 25.81 105.595 26.1225L101.189 27.8132ZM95.8029 32.25H98.0269V18.8125H95.8029V32.25ZM92.2507 24.4318H92.1769C91.8445 24.1073 91.4413 23.8523 90.9942 23.6838C90.547 23.5153 90.0663 23.4371 89.584 23.4545C88.3165 23.5089 87.1203 24.014 86.2441 24.8648C85.3679 25.7157 84.879 26.8469 84.879 28.0233C84.879 29.1997 85.3679 30.3309 86.2441 31.1817C87.1203 32.0326 88.3165 32.5377 89.584 32.592C90.0716 32.606 90.5566 32.5204 91.0047 32.3414C91.4528 32.1624 91.8529 31.8943 92.1769 31.5561H92.2507V32.2109C92.2507 33.9602 91.1967 34.8984 89.6261 34.8984C89.0785 34.8834 88.5484 34.716 88.1048 34.418C87.6611 34.12 87.3245 33.7051 87.1386 33.2273L85.2518 33.9504C85.6086 34.7451 86.2117 35.4238 86.9847 35.9005C87.7578 36.3772 88.6661 36.6304 89.5945 36.6282C92.1348 36.6282 94.2745 35.2502 94.2745 31.8688V23.6598H92.1664V24.4318H92.2507ZM89.7737 30.7548C89.0118 30.7128 88.2961 30.4026 87.7726 29.8876C87.2492 29.3727 86.9577 28.6918 86.9577 27.9842C86.9577 27.2766 87.2492 26.5957 87.7726 26.0807C88.2961 25.5658 89.0118 25.2556 89.7737 25.2136C90.1464 25.2295 90.5119 25.3149 90.8481 25.4649C91.1844 25.6148 91.4846 25.8262 91.7306 26.0862C91.9767 26.3463 92.1636 26.6498 92.2801 26.9784C92.3967 27.3071 92.4404 27.6541 92.4088 27.9988C92.433 28.3391 92.3837 28.6805 92.2637 29.0029C92.1437 29.3252 91.9554 29.6221 91.7099 29.8761C91.4645 30.1301 91.1667 30.3361 90.8342 30.4819C90.5017 30.6278 90.1412 30.7106 89.7737 30.7254V30.7548ZM118.054 18.8125H112.868V32.25H115.029V27.1584H118.054C118.671 27.1976 119.29 27.1187 119.873 26.9267C120.455 26.7348 120.989 26.4338 121.441 26.0424C121.893 25.6511 122.254 25.1778 122.5 24.6519C122.746 24.126 122.874 23.5588 122.874 22.9854C122.874 22.4121 122.746 21.8448 122.5 21.319C122.254 20.7931 121.893 20.3198 121.441 19.9284C120.989 19.5371 120.455 19.2361 119.873 19.0441C119.29 18.8522 118.671 18.7733 118.054 18.8125ZM118.107 25.2918H115.029V20.6791H118.054C118.714 20.6791 119.346 20.9221 119.813 21.3546C120.279 21.7871 120.542 22.3738 120.542 22.9854C120.542 23.5971 120.279 24.1838 119.813 24.6163C119.346 25.0488 118.714 25.2918 118.054 25.2918H118.107ZM131.472 23.3373C130.68 23.2951 129.891 23.4688 129.204 23.8369C128.516 24.205 127.96 24.7515 127.604 25.4091L129.522 26.1518C129.72 25.8324 130.01 25.5712 130.361 25.3983C130.712 25.2254 131.108 25.1479 131.504 25.1745C132.052 25.1306 132.596 25.2868 133.022 25.61C133.447 25.9332 133.719 26.3976 133.78 26.9043V27.0411C133.085 26.7004 132.311 26.5226 131.525 26.5232C129.417 26.5232 127.309 27.5786 127.309 29.5429C127.333 29.9566 127.445 30.3616 127.641 30.7341C127.836 31.1067 128.109 31.4394 128.445 31.7125C128.781 31.9856 129.172 32.1938 129.596 32.3247C130.02 32.4556 130.468 32.5066 130.913 32.4748C131.459 32.5048 132.003 32.3982 132.489 32.166C132.975 31.9339 133.385 31.5848 133.675 31.1554H133.749V32.25H135.857V27.0704C135.867 24.6859 133.949 23.3568 131.462 23.3568L131.472 23.3373ZM131.219 30.7059C130.502 30.7059 129.522 30.3736 129.522 29.5625C129.522 28.5266 130.745 28.1259 131.809 28.1259C132.501 28.1119 133.184 28.267 133.791 28.5754C133.717 29.1638 133.413 29.7069 132.938 30.1027C132.462 30.4985 131.848 30.72 131.209 30.7254L131.219 30.7059ZM143.488 23.6304L141.001 29.4941H140.927L138.355 23.6304H135.973L139.831 31.7711L137.638 36.3057H139.894L145.839 23.6011L143.488 23.6304ZM123.988 32.25H126.149V18.8125H123.988V32.25Z" fill="white"/>
    <path d="M31.3372 26.103L26.5518 21.6564V21.3437L31.3372 16.9069L31.4426 16.9655L37.1239 19.9462C38.7366 20.8062 38.7366 22.2037 37.1239 23.0539L31.4426 26.0444L31.3372 26.103Z" fill="url(#paint0_linear)"/>
    <path d="M12.1007 8.10162C11.7319 8.52926 11.5512 9.07037 11.5948 9.61639V33.3837C11.5579 33.9338 11.7503 34.4761 12.1323 34.8984L12.2166 34.9766L26.5518 21.6564V21.3437L12.185 8.02344L12.1007 8.10162Z" fill="url(#paint1_linear)"/>
    <path d="M31.4425 26.0443L26.5517 21.5L12.1006 34.8984C12.4318 35.1679 12.8538 35.3222 13.2942 35.3346C13.7347 35.3471 14.1661 35.2171 14.5144 34.9668L31.4425 26.0443Z" fill="url(#paint2_linear)"/>
    <path opacity="0.2" d="M31.3372 25.9465L14.4724 34.8104C14.1365 35.0443 13.7277 35.1708 13.3076 35.1708C12.8876 35.1708 12.4788 35.0443 12.1429 34.8104L12.0586 34.8886L12.1429 34.9668C12.4788 35.2007 12.8876 35.3271 13.3076 35.3271C13.7277 35.3271 14.1365 35.2007 14.4724 34.9668L31.4005 26.0443L31.3372 25.9465Z" fill="black"/>
    <path opacity="0.12" d="M12.1008 34.7421C11.7301 34.3154 11.5492 33.7735 11.5948 33.2273V33.3837C11.558 33.9338 11.7504 34.4761 12.1324 34.8984L12.2167 34.8203L12.1008 34.7421Z" fill="black"/>
    <path d="M31.4425 16.9556L14.5144 8.03313C14.1653 7.78465 13.7342 7.65572 13.2943 7.66818C12.8544 7.68065 12.4327 7.83375 12.1006 8.10154L26.5517 21.5L31.4425 16.9556Z" fill="url(#paint3_linear)"/>
    <path opacity="0.12" d="M37.1237 22.8975L31.3369 25.9466L31.4423 26.0443L37.1237 23.0539C37.4578 22.9199 37.7467 22.7048 37.96 22.4314C38.1734 22.1579 38.3032 21.8361 38.3358 21.5C38.2618 21.8031 38.1141 22.0865 37.904 22.3287C37.694 22.5709 37.4271 22.7654 37.1237 22.8975Z" fill="black"/>
    <path opacity="0.25" d="M14.5145 8.19928L37.1239 20.1025C37.4273 20.2346 37.6942 20.4291 37.9043 20.6713C38.1143 20.9134 38.262 21.1969 38.3361 21.5C38.3013 21.1644 38.1706 20.8436 37.9575 20.5705C37.7445 20.2973 37.4567 20.0818 37.1239 19.9461L14.5145 8.03315C12.8912 7.18292 11.5947 7.89633 11.5947 9.61633V9.77269C11.5947 8.05269 12.8912 7.33928 14.5145 8.19928Z" fill="white"/>
    <path d="M89.5947 13.4375V6.98755H90.4907V9.77278H93.9691V6.98755H94.865V13.4375H93.9691V10.5057H90.4907V13.4375H89.5947Z" fill="white" stroke="white" stroke-width="0.2" stroke-miterlimit="10"/>
    <path d="M83.0176 13.4375V6.98755H88.0454V13.4375H87.1495V7.81823H83.903V13.4766L83.0176 13.4375Z" fill="white" stroke="white" stroke-width="0.2" stroke-miterlimit="10"/>
    <path d="M82.0053 6.98755L79.3701 12.431C79.2614 12.7552 79.0469 13.0402 78.7562 13.2468C78.4655 13.4533 78.1129 13.5712 77.7469 13.5841C77.5068 13.5782 77.2704 13.5284 77.0512 13.4375L77.2831 12.6753C77.4277 12.7514 77.5911 12.7918 77.7574 12.7925C77.9251 12.8025 78.0917 12.7613 78.2317 12.6753C78.3741 12.5665 78.4831 12.4249 78.548 12.2648L78.8009 11.7566L76.4609 6.98755H77.515L79.2331 10.6914L80.9512 6.98755H82.0053Z" fill="white" stroke="white" stroke-width="0.2" stroke-miterlimit="10"/>
    <path d="M73.9209 13.4375H73.0249V7.81823H71.0854V6.98755H75.8919V7.81823H73.9209V13.4375Z" fill="white" stroke="white" stroke-width="0.2" stroke-miterlimit="10"/>
    <path d="M48.9187 14.8057H48.0649V12.646H48.7501C49.0824 12.3182 49.3338 11.9272 49.4867 11.5002C49.6396 11.0732 49.6904 10.6205 49.6355 10.1735V6.98755H54.2733V12.646H55.0533V14.8057H54.1995V13.4375H48.9293V14.8057H48.9187ZM50.5209 10.1735C50.584 11.0404 50.3557 11.9043 49.8674 12.646H53.3774V7.81823H50.5209V10.1735Z" fill="white" stroke="white" stroke-width="0.2" stroke-miterlimit="10"/>
    <path d="M106.871 13.4376V6.98756H109.39C109.911 6.98614 110.414 7.1637 110.802 7.48597C111.003 7.64755 111.162 7.84948 111.266 8.0764C111.37 8.30331 111.417 8.54925 111.403 8.79551C111.404 9.08421 111.313 9.36671 111.14 9.60665C110.971 9.84017 110.733 10.0235 110.454 10.1344C110.79 10.2364 111.084 10.4307 111.298 10.6914C111.52 10.9529 111.639 11.2771 111.635 11.6101C111.641 11.8582 111.587 12.1044 111.478 12.331C111.369 12.5575 111.206 12.7586 111.003 12.9196C110.6 13.2688 110.067 13.4582 109.516 13.4473L106.871 13.4376ZM107.767 9.75324H109.379C109.531 9.75833 109.682 9.73302 109.822 9.67905C109.962 9.62508 110.088 9.54371 110.191 9.44051C110.386 9.25848 110.495 9.0128 110.497 8.75642C110.495 8.5048 110.39 8.26327 110.201 8.0821C110.105 7.98027 109.984 7.90011 109.849 7.84764C109.714 7.79517 109.568 7.77175 109.421 7.77915H107.756V9.73369L107.767 9.75324ZM107.767 12.6851H109.558C109.715 12.6906 109.871 12.6636 110.015 12.6062C110.159 12.5487 110.288 12.4621 110.391 12.3528C110.495 12.2574 110.577 12.144 110.633 12.019C110.689 11.8941 110.718 11.7601 110.718 11.6247C110.718 11.4894 110.689 11.3554 110.633 11.2304C110.577 11.1055 110.495 10.992 110.391 10.8966C110.28 10.7859 110.144 10.6988 109.993 10.6414C109.842 10.584 109.679 10.5578 109.516 10.5644H107.767V12.6851Z" fill="white" stroke="white" stroke-width="0.2" stroke-miterlimit="10"/>
    <path d="M67.5439 13.5841C67.0654 13.5908 66.5903 13.508 66.147 13.3407C65.7037 13.1733 65.3014 12.9249 64.9639 12.6102C64.6265 12.2956 64.3609 11.9211 64.183 11.5091C64.0051 11.0972 63.9185 10.6562 63.9285 10.2126C63.9185 9.76891 64.0051 9.32795 64.183 8.916C64.3609 8.50405 64.6265 8.12955 64.9639 7.81487C65.3014 7.50019 65.7037 7.25177 66.147 7.08444C66.5903 6.91711 67.0654 6.8343 67.5439 6.84096C68.0291 6.82618 68.5116 6.91346 68.9552 7.09626C69.3988 7.27905 69.792 7.55261 70.1053 7.89642L69.4834 8.45346C69.2528 8.18459 68.9569 7.97007 68.6198 7.82741C68.2828 7.68475 67.9141 7.61798 67.5439 7.63255C67.1887 7.62489 66.8355 7.68417 66.5058 7.8068C66.176 7.92943 65.8766 8.11285 65.6255 8.34596C65.365 8.59124 65.1613 8.88339 65.0272 9.20441C64.893 9.52544 64.8312 9.86853 64.8455 10.2126C64.8308 10.5552 64.8924 10.8969 65.0266 11.2164C65.1609 11.5359 65.3647 11.8263 65.6255 12.0694C65.8766 12.3025 66.176 12.4859 66.5058 12.6085C66.8355 12.7312 67.1887 12.7904 67.5439 12.7828C67.9517 12.7762 68.3528 12.6851 68.7176 12.5159C69.0824 12.3468 69.4017 12.1041 69.652 11.8055L70.2739 12.3821C69.9494 12.7435 69.5427 13.0339 69.0828 13.2323C68.6031 13.4507 68.0782 13.5707 67.5439 13.5841Z" fill="white" stroke="white" stroke-width="0.2" stroke-miterlimit="10"/>
    <path d="M62.0204 12.6069C61.3428 13.2323 60.4257 13.5834 59.4696 13.5834C58.5135 13.5834 57.5963 13.2323 56.9188 12.6069C56.5789 12.2937 56.3104 11.9203 56.1294 11.509C55.9483 11.0977 55.8583 10.6568 55.8647 10.2126C55.8571 9.76816 55.9465 9.32694 56.1277 8.91546C56.3088 8.50397 56.5779 8.13074 56.9188 7.81823C57.2536 7.50738 57.6512 7.26077 58.0889 7.09251C58.5266 6.92425 58.9957 6.83765 59.4696 6.83765C59.9434 6.83765 60.4126 6.92425 60.8503 7.09251C61.288 7.26077 61.6856 7.50738 62.0204 7.81823C62.3604 8.12925 62.6291 8.50084 62.8103 8.91063C62.9914 9.32042 63.0813 9.75995 63.0744 10.2028C63.0823 10.6486 62.993 11.0914 62.8119 11.5045C62.6307 11.9176 62.3615 12.2925 62.0204 12.6069ZM57.5828 12.0596C57.8305 12.2895 58.1246 12.4719 58.4483 12.5963C58.7721 12.7207 59.1191 12.7848 59.4696 12.7848C59.82 12.7848 60.1671 12.7207 60.4908 12.5963C60.8145 12.4719 61.1087 12.2895 61.3563 12.0596C61.6248 11.8215 61.8373 11.5345 61.9806 11.2167C62.1239 10.8988 62.1949 10.557 62.189 10.2126C62.2007 9.87029 62.1376 9.52938 62.0035 9.21029C61.8695 8.89121 61.6673 8.60053 61.409 8.35573C61.1614 8.12584 60.8672 7.94347 60.5435 7.81904C60.2198 7.6946 59.8727 7.63056 59.5223 7.63056C59.1718 7.63056 58.8248 7.6946 58.501 7.81904C58.1773 7.94347 57.8832 8.12584 57.6355 8.35573C57.3787 8.60101 57.1781 8.892 57.0458 9.21112C56.9136 9.53025 56.8524 9.87091 56.8661 10.2126C56.8444 10.5494 56.8968 10.8868 57.02 11.2043C57.1432 11.5218 57.3347 11.8127 57.5828 12.0596Z" fill="white" stroke="white" stroke-width="0.2" stroke-miterlimit="10"/>
    <path d="M102.244 12.6068C101.566 13.2323 100.649 13.5834 99.6927 13.5834C98.7366 13.5834 97.8195 13.2323 97.1419 12.6068C96.802 12.2937 96.5336 11.9203 96.3525 11.509C96.1714 11.0976 96.0814 10.6567 96.0879 10.2125C96.0802 9.76813 96.1696 9.3269 96.3508 8.91542C96.5319 8.50393 96.8011 8.1307 97.1419 7.81819C97.4751 7.50646 97.8716 7.25902 98.3085 7.09016C98.7454 6.92129 99.2141 6.83435 99.6874 6.83435C100.161 6.83435 100.629 6.92129 101.066 7.09016C101.503 7.25902 101.9 7.50646 102.233 7.81819C102.575 8.12818 102.844 8.49958 103.025 8.90961C103.207 9.31964 103.296 9.75968 103.287 10.2027C103.296 10.6479 103.209 11.0902 103.029 11.5033C102.85 11.9164 102.583 12.2917 102.244 12.6068ZM97.806 12.0596C98.0536 12.2894 98.3477 12.4718 98.6715 12.5963C98.9952 12.7207 99.3423 12.7847 99.6927 12.7847C100.043 12.7847 100.39 12.7207 100.714 12.5963C101.038 12.4718 101.332 12.2894 101.579 12.0596C101.838 11.8172 102.041 11.5284 102.175 11.2108C102.309 10.8931 102.372 10.5534 102.359 10.2125C102.371 9.87025 102.308 9.52934 102.174 9.21025C102.04 8.89117 101.838 8.60049 101.579 8.35569C101.332 8.1258 101.038 7.94343 100.714 7.819C100.39 7.69456 100.043 7.63052 99.6927 7.63052C99.3423 7.63052 98.9952 7.69456 98.6715 7.819C98.3477 7.94343 98.0536 8.1258 97.806 8.35569C97.5477 8.60049 97.3455 8.89117 97.2114 9.21025C97.0774 9.52934 97.0143 9.87025 97.026 10.2125C97.0064 10.55 97.0607 10.8876 97.1857 11.2051C97.3107 11.5225 97.5038 11.8132 97.7533 12.0596H97.806Z" fill="white" stroke="white" stroke-width="0.2" stroke-miterlimit="10"/>
  </g>
  <defs>
    <linearGradient id="paint0_linear" x1="39.2299" y1="21.504" x2="11.171" y2="21.504" gradientUnits="userSpaceOnUse">
      <stop stop-color="#FFE000"/>
      <stop offset="0.41" stop-color="#FFBD00"/>
      <stop offset="0.78" stop-color="#FFA500"/>
      <stop offset="1" stop-color="#FF9C00"/>
    </linearGradient>
    <linearGradient id="paint1_linear" x1="25.2816" y1="9.36719" x2="7.28309" y2="28.7683" gradientUnits="userSpaceOnUse">
      <stop stop-color="#00A0FF"/>
      <stop offset="0.01" stop-color="#00A1FF"/>
      <stop offset="0.26" stop-color="#00BEFF"/>
      <stop offset="0.51" stop-color="#00D2FF"/>
      <stop offset="0.76" stop-color="#00DFFF"/>
      <stop offset="1" stop-color="#00E3FF"/>
    </linearGradient>
    <linearGradient id="paint2_linear" x1="28.7947" y1="23.9657" x2="4.39751" y2="50.2797" gradientUnits="userSpaceOnUse">
      <stop stop-color="#FF3A44"/>
      <stop offset="1" stop-color="#C31162"/>
    </linearGradient>
    <linearGradient id="paint3_linear" x1="8.45778" y1="0.19736" x2="19.3486" y2="11.9439" gradientUnits="userSpaceOnUse">
      <stop stop-color="#32A071"/>
      <stop offset="0.07" stop-color="#2DA771"/>
      <stop offset="0.48" stop-color="#15CF74"/>
      <stop offset="0.8" stop-color="#06E775"/>
      <stop offset="1" stop-color="#00F076"/>
    </linearGradient>
    <clipPath id="clip0">
      <path d="M0 0H156V43H0V0Z" fill="white"/>
    </clipPath>
  </defs>
</svg>
