<svg width="60" height="61" viewBox="0 0 60 61" fill="none" xmlns="http://www.w3.org/2000/svg">
  <path d="M9.96785 53.5981C9.75 53.38 9.44765 53.2548 9.13943 53.2548C8.83122 53.2548 8.52887 53.38 8.3109 53.5981C8.09292 53.8162 7.96753 54.1185 7.96753 54.4267C7.96753 54.7349 8.09281 55.0372 8.3109 55.2551C8.52887 55.4731 8.83122 55.5986 9.13943 55.5986C9.44765 55.5986 9.75 55.4732 9.96785 55.2551C10.1858 55.0372 10.3113 54.7349 10.3113 54.4267C10.3113 54.1185 10.1859 53.8161 9.96785 53.5981Z" fill="#46AC4A"/>
  <path d="M55.0224 21.723C54.8044 21.5049 54.5033 21.3796 54.1939 21.3796C53.8857 21.3796 53.5833 21.5049 53.3653 21.723C53.1475 21.941 53.022 22.2433 53.022 22.5515C53.022 22.8598 53.1474 23.1621 53.3653 23.38C53.5833 23.5979 53.8857 23.7234 54.1939 23.7234C54.5033 23.7234 54.8044 23.5981 55.0224 23.38C55.2414 23.1621 55.3668 22.8598 55.3668 22.5515C55.3668 22.2433 55.2414 21.941 55.0224 21.723Z" fill="#46AC4A"/>
  <path d="M59.6567 0.627919C59.4369 0.408187 59.1388 0.284668 58.8279 0.284668L29.9997 0.286191C29.3526 0.286191 28.8279 0.81097 28.8279 1.4581V4.80939L17.7196 7.78591C17.0943 7.9535 16.7233 8.59605 16.8909 9.22114L22.6481 30.7071L17.6676 35.6876C17.0338 34.762 15.9694 34.1533 14.7655 34.1533H3.5156C1.57703 34.1533 0 35.7305 0 37.6689V56.7705C0 58.709 1.57703 60.2862 3.5156 60.2862H14.7656C16.4125 60.2862 17.798 59.1476 18.1776 57.6166L19.571 58.8317C20.6467 59.7697 22.0249 60.2863 23.4522 60.2863H58.8281C59.4752 60.2863 60 59.7615 60 59.1144V1.45657C59.9998 1.14578 59.8765 0.847651 59.6567 0.627919ZM15.9373 56.7706C15.9373 57.4167 15.4116 57.9425 14.7654 57.9425H3.51548C2.86929 57.9425 2.34358 57.4168 2.34358 56.7706V37.669C2.34358 37.0228 2.86929 36.4971 3.51548 36.4971H7.9686V49.9969C7.9686 50.644 8.49338 51.1688 9.1405 51.1688C9.78763 51.1688 10.3124 50.644 10.3124 49.9969V36.4971H14.7655C15.4117 36.4971 15.9374 37.0228 15.9374 37.669V56.7706H15.9373ZM19.4581 9.74651L28.8279 7.23582V11.5783L28.0425 11.7888C27.7421 11.8693 27.4863 12.0656 27.3309 12.3348C27.1755 12.604 27.1333 12.9238 27.2139 13.224C27.6642 14.9046 26.6633 16.6382 24.9827 17.0886C24.6821 17.1692 24.4258 17.3659 24.2705 17.6357C24.1152 17.9053 24.0734 18.2257 24.1546 18.5262L28.7226 35.4412H26.3706L25.1584 30.6992C25.1199 30.5483 25.0524 30.4092 24.962 30.2882L19.4581 9.74651ZM28.8279 16.9526V26.8412L26.6905 18.9267C27.5834 18.4657 28.314 17.7759 28.8279 16.9526ZM45.664 57.9424H23.4519C22.5912 57.9424 21.7599 57.6309 21.1112 57.0652L18.2811 54.5971V38.3888L23.3974 33.2725L24.3253 36.9031C24.458 37.4219 24.9252 37.7847 25.4607 37.7847L48.5008 37.7861C49.4055 37.7861 50.1415 38.522 50.1415 39.4268C50.1415 40.3315 49.4055 41.0674 48.5008 41.0674H36.695C36.0479 41.0674 35.5231 41.5922 35.5231 42.2393C35.5231 42.8865 36.0479 43.4112 36.695 43.4112H52.1689C53.0736 43.4112 53.8095 44.1472 53.8095 45.0519C53.8095 45.9566 53.0736 46.6926 52.1689 46.6926H36.695C36.0479 46.6926 35.5231 47.2173 35.5231 47.8645C35.5231 48.5116 36.0479 49.0364 36.695 49.0364H49.6613C50.5661 49.0364 51.302 49.7723 51.302 50.677C51.302 51.5818 50.5661 52.3177 49.6613 52.3177H36.695C36.0479 52.3177 35.5231 52.8425 35.5231 53.4896C35.5231 54.1367 36.0479 54.6615 36.695 54.6615H45.664C46.5687 54.6615 47.3046 55.3975 47.3046 56.3022C47.3045 57.2064 46.5686 57.9424 45.664 57.9424ZM57.6562 57.9424H57.6561H49.2935C49.5207 57.4416 49.6483 56.8865 49.6483 56.3017C49.6483 55.7169 49.5207 55.1618 49.2935 54.661H49.6613C51.8583 54.661 53.6457 52.8737 53.6457 50.6767C53.6457 50.0359 53.4928 49.4304 53.2228 48.8934C54.9098 48.43 56.1531 46.8837 56.1531 45.0517C56.1531 44.1629 55.8604 43.3413 55.3666 42.678V27.8253C55.3666 27.1781 54.8419 26.6533 54.1947 26.6533C53.5476 26.6533 53.0228 27.1781 53.0228 27.8253V41.1606C52.7474 41.1002 52.4618 41.0674 52.1686 41.0674H52.1302C52.3574 40.5667 52.485 40.0115 52.485 39.4268C52.485 37.2297 50.6977 35.4424 48.5007 35.4424H46.6168C48.6172 34.5846 50.0221 32.5963 50.0221 30.2854C50.0221 27.1929 47.5062 24.6769 44.4137 24.6769C41.3212 24.6769 38.8053 27.1929 38.8053 30.2854C38.8053 32.5963 40.2103 34.5846 42.2105 35.4424H35.8045V13.1596C37.898 12.7033 39.5499 11.0515 40.006 8.95794H48.8212C49.2773 11.0515 50.9292 12.7033 53.0227 13.1596V16.803C53.0227 17.4501 53.5475 17.9749 54.1946 17.9749C54.8417 17.9749 55.3665 17.4501 55.3665 16.803V12.1133C55.3665 11.4662 54.8417 10.9414 54.1946 10.9414C52.4547 10.9414 51.0394 9.52584 51.0394 7.78603C51.0394 7.13891 50.5146 6.61413 49.8675 6.61413H38.9599C38.3127 6.61413 37.788 7.13891 37.788 7.78603C37.788 9.52596 36.3725 10.9414 34.6327 10.9414C33.9856 10.9414 33.4608 11.4662 33.4608 12.1133V35.4423H31.1718V2.62977L57.6562 2.62848V57.9424ZM44.4139 33.5501C42.6137 33.5501 41.1493 32.0856 41.1493 30.2855C41.1493 28.4855 42.6139 27.0209 44.4139 27.0209C46.2139 27.0209 47.6785 28.4854 47.6785 30.2854C47.6785 32.0855 46.2141 33.5501 44.4139 33.5501Z" fill="#46AC4A"/>
</svg>
