<svg width="120" height="30" viewBox="0 0 120 30" fill="none" xmlns="http://www.w3.org/2000/svg">
<path fill-rule="evenodd" clip-rule="evenodd" d="M108.135 22.9649H110.005C110.203 22.9649 110.363 22.8061 110.363 22.6104H110.363V22.6013V17.8444H113.56C117.102 17.8444 120 15.9784 120 12.4057C120 9.15174 117.631 7.03531 113.882 7.03531H108.135C107.803 7.03531 107.534 7.30148 107.534 7.62959V22.3705C107.534 22.6988 107.803 22.9649 108.135 22.9649ZM53.1646 20.5836L53.1647 20.5929C53.1647 20.709 53.1084 20.8122 53.0209 20.8768C51.4413 22.1668 49.2158 23.2379 46.4487 23.2379C41.4121 23.2379 38.1001 19.6877 38.1001 15C38.1001 10.5397 41.55 6.76208 46.4029 6.76208C48.9229 6.76208 50.571 7.38614 52.0805 8.51925L52.0812 8.51971L52.0836 8.52153C52.2354 8.62961 52.3342 8.80555 52.3342 9.00467C52.3342 9.15538 52.2774 9.29323 52.1838 9.39791L52.1884 9.39745L51.0334 10.7601C50.9678 10.8436 50.8655 10.8974 50.7504 10.8974C50.6673 10.8974 50.5906 10.8692 50.5298 10.8221L50.5294 10.8219L50.5226 10.8165C49.3708 9.90048 48.1848 9.33347 46.2878 9.33347C43.3209 9.33347 41.067 11.9052 41.067 15C41.067 18.2771 43.2518 20.6891 46.5409 20.6891C48.0588 20.6891 49.4388 20.2113 50.4279 19.483V16.502H46.6781H46.6688C46.471 16.502 46.3107 16.3433 46.3107 16.1476H46.3109V16.1384V14.4311L46.3107 14.4213C46.3107 14.2256 46.471 14.067 46.6688 14.067H46.6781H52.8067H52.8068C53.0046 14.0672 53.1647 14.2257 53.1647 14.4214L53.1646 14.4305V20.5836ZM56.6798 22.9649H58.55C58.7478 22.9649 58.9082 22.8061 58.9082 22.6104H58.9081V22.6013V17.4121H62.4039L66.2331 22.7251L66.2337 22.7243C66.3431 22.8702 66.5185 22.9649 66.7165 22.9649H69.0459C69.2438 22.9649 69.404 22.8061 69.404 22.6104C69.404 22.5277 69.3752 22.4514 69.327 22.391L65.3938 16.9343C67.6478 16.2972 69.2349 14.7269 69.2349 12.1101C69.2349 9.03774 67.0268 7.03531 63.2549 7.03531H56.6876L56.6798 7.03507C56.3481 7.03507 56.0791 7.30137 56.0791 7.62948V22.3705C56.0791 22.6988 56.3481 22.9649 56.6798 22.9649ZM58.9081 14.9316V9.93821C58.9081 9.7425 59.0684 9.58396 59.2662 9.58396H63.0248C65.1178 9.58396 66.3598 10.517 66.3598 12.2235C66.3598 13.885 65.0719 14.9316 63.0479 14.9316H58.9081ZM79.6456 23.2379C84.5906 23.2379 88.0865 19.4829 88.0865 15C88.0865 10.4715 84.6366 6.76208 79.6917 6.76208C74.7467 6.76208 71.2508 10.517 71.2508 15C71.2508 19.5285 74.7008 23.2379 79.6456 23.2379ZM79.6917 20.6665C76.4947 20.6665 74.2178 18.0948 74.2178 15C74.2178 11.8595 76.4487 9.33347 79.6456 9.33347C82.8425 9.33347 85.1196 11.9052 85.1196 15C85.1196 18.1405 82.8886 20.6665 79.6917 20.6665ZM97.3487 23.2152C101.558 23.2152 104.272 20.8259 104.272 16.0696V7.62959C104.272 7.30148 104.003 7.03531 103.671 7.03531H101.801C101.603 7.03531 101.442 7.19385 101.442 7.38956H101.443V7.39876V16.2062C101.443 19.1415 99.9017 20.6437 97.3948 20.6437C94.8647 20.6437 93.3238 19.0506 93.3238 16.0924V7.39876V7.38956H93.3239C93.3239 7.19385 93.1636 7.03531 92.9658 7.03531H91.0955C90.7637 7.03531 90.4948 7.30148 90.4948 7.62959V16.2062C90.4948 20.8259 93.1628 23.2152 97.3487 23.2152ZM110.363 15.3186V9.93821C110.363 9.7425 110.523 9.58396 110.721 9.58396H113.652C115.768 9.58396 117.125 10.5624 117.125 12.4288C117.125 14.1352 115.791 15.3186 113.652 15.3186H110.363Z" fill="#15599D"/>
<path fill-rule="evenodd" clip-rule="evenodd" d="M23.6568 27.4477C28.8139 25.6311 32.8432 21.4814 32.8432 14.9996C32.8432 8.51812 28.8138 4.36822 23.6565 2.55172C21.6373 1.84037 19.4441 1.48476 17.2493 1.48476C15.0546 1.48476 12.8614 1.84037 10.842 2.55172C5.68498 4.36822 1.65565 8.51812 1.65565 14.9996C1.65565 21.4814 5.68498 25.6311 10.8423 27.4477C12.8615 28.159 15.0547 28.5149 17.2495 28.5149C19.4442 28.5149 21.6375 28.159 23.6568 27.4477ZM34.4991 15C34.4991 35 0 35 0 15C0 -5.00001 34.4991 -5.00001 34.4991 15ZM33.5969 14.9996C33.5969 21.8505 29.3469 26.2338 23.907 28.1501C21.8054 28.8904 19.5264 29.2607 17.2495 29.2607C14.9726 29.2607 12.6936 28.8904 10.592 28.1501C5.1519 26.2338 0.90191 21.8505 0.90191 14.9996C0.90191 8.14909 5.1519 3.76575 10.5919 1.84957C12.6934 1.10902 14.9725 0.738969 17.2493 0.738969C19.5263 0.738969 21.8053 1.10902 23.9068 1.84957C29.3469 3.76575 33.5969 8.14909 33.5969 14.9996Z" fill="url(#paint0_linear)"/>
<path fill-rule="evenodd" clip-rule="evenodd" d="M33.5969 14.9996C33.5969 21.8506 29.3469 26.2338 23.9069 28.1501C21.8054 28.8904 19.5264 29.2607 17.2495 29.2607C14.9726 29.2607 12.6935 28.8904 10.592 28.1501C5.15189 26.2338 0.901899 21.8506 0.901899 14.9996C0.901899 8.1491 5.15189 3.76576 10.5919 1.84959C12.6934 1.10903 14.9725 0.738983 17.2493 0.738983C19.5263 0.738983 21.8053 1.10903 23.9068 1.84959C29.3469 3.76576 33.5969 8.1491 33.5969 14.9996ZM23.6568 27.4477C28.8138 25.6311 32.8432 21.4814 32.8432 14.9996C32.8432 8.51813 28.8138 4.36824 23.6565 2.55174C21.6373 1.84039 19.4441 1.48477 17.2493 1.48477C15.0546 1.48477 12.8614 1.84039 10.842 2.55174C5.68497 4.36824 1.65564 8.51813 1.65564 14.9996C1.65564 21.4814 5.68497 25.6311 10.8423 27.4477C12.8615 28.159 15.0547 28.5149 17.2495 28.5149C19.4442 28.5149 21.6375 28.159 23.6568 27.4477Z" fill="#FEFEFE"/>
<path fill-rule="evenodd" clip-rule="evenodd" d="M8.36374 23.047H15.0097C18.6838 23.047 21.102 21.5758 21.102 18.6327C21.102 16.4249 19.939 15.3446 18.0559 14.6317C19.2183 13.9879 20.1955 12.9766 20.1955 11.1597C20.1955 8.14136 17.5378 6.952 14.8238 6.952H8.36374C8.03408 6.952 7.7669 7.21646 7.7669 7.54275V7.54492V22.4563V22.4564C7.7669 22.7827 8.03408 23.047 8.36374 23.047ZM11.2554 13.4593V10.4104V10.4103C11.2556 10.2146 11.4157 10.0562 11.6135 10.0562H14.2889C15.8001 10.0562 16.6374 10.6538 16.6374 11.7119C16.6374 12.9533 15.6372 13.4593 14.0565 13.4593H11.2554ZM11.2554 19.5885V16.4022H14.8934C16.73 16.4022 17.5439 17.0692 17.5439 18.1495C17.5439 19.3913 16.5904 19.9429 15.0097 19.9429H11.6135C11.4157 19.9429 11.2554 19.7845 11.2554 19.5888V19.5885ZM23.509 23.047H26.1352C26.4649 23.047 26.732 22.7827 26.732 22.4564V22.4563V7.54275V7.54264C26.7318 7.21635 26.4649 6.952 26.1352 6.952H23.509C23.3113 6.952 23.1512 7.11054 23.151 7.30636V22.6927C23.151 22.8885 23.3113 23.047 23.509 23.047Z" fill="white"/>
<defs>
<linearGradient id="paint0_linear" x1="21.2673" y1="19.2631" x2="3.64101" y2="0.158948" gradientUnits="userSpaceOnUse">
<stop stop-color="#074C89"/>
<stop offset="1" stop-color="#2F83C5"/>
</linearGradient>
</defs>
</svg>
