<svg width="62" height="62" viewBox="0 0 62 62" fill="none" xmlns="http://www.w3.org/2000/svg">
  <path d="M50.1393 22.104H39.1623V9.31633V4.41664C39.1622 1.98121 37.181 0 34.7457 0H10.5078C8.07252 0 6.09131 1.98121 6.09131 4.41664V9.31633V52.6837V57.5834C6.09131 60.0187 8.07252 62 10.508 62H34.7457C37.181 62 39.1623 60.0188 39.1623 57.5834V52.6837V44.3257H50.1393C52.028 44.3257 53.5646 42.7891 53.5646 40.9004V25.5293C53.5646 23.6406 52.028 22.104 50.1393 22.104ZM39.1622 24.526H50.1393V24.5259C50.1779 24.5259 50.2158 24.5286 50.2533 24.5328C50.2653 24.5342 50.277 24.5365 50.2889 24.5383C50.3143 24.542 50.3394 24.5465 50.3642 24.5522C50.3774 24.5552 50.3905 24.5587 50.4035 24.5624C50.4268 24.5687 50.4496 24.5759 50.4721 24.5838C50.4846 24.5882 50.497 24.5926 50.5093 24.5975C50.5331 24.6069 50.5562 24.6176 50.579 24.6288C50.5887 24.6336 50.5987 24.6379 50.6083 24.643C50.6402 24.66 50.6713 24.6783 50.7009 24.6985C50.7038 24.7004 50.7064 24.7027 50.7092 24.7047C50.7358 24.7232 50.7615 24.7428 50.7862 24.7637C50.7954 24.7715 50.804 24.78 50.813 24.7881C50.8306 24.8042 50.8479 24.8207 50.8644 24.838C50.8737 24.8478 50.8828 24.8578 50.8918 24.868C50.9069 24.8852 50.9215 24.903 50.9354 24.9212C50.9405 24.9277 50.9453 24.9344 50.9503 24.941L39.1622 31.7408L39.0298 31.8171L37.0159 32.9787C36.5704 33.2354 36.017 33.2357 35.5715 32.9787L33.5577 31.8171L27.9013 28.5542V24.526H36.7403H39.1622ZM31.1343 33.2149L27.9013 35.0797V31.35L31.1343 33.2149ZM8.51318 4.41664C8.51318 3.31675 9.40782 2.42187 10.5078 2.42187H34.7455C35.8454 2.42187 36.7403 3.31675 36.7403 4.41664V8.10539H8.51318V4.41664ZM36.7403 57.5832C36.7403 58.6831 35.8454 59.578 34.7455 59.578H10.5078C9.40794 59.578 8.51306 58.6831 8.51306 57.5832V53.8945H36.7403V57.5832ZM36.7403 51.4729H8.51318V10.5273H36.7403V22.1042H27.9013V20.0613C27.9013 19.3926 27.3591 18.8504 26.6904 18.8504C26.0217 18.8504 25.4795 19.3926 25.4795 20.0613V23.3151V29.2537V37.1762V43.1149V46.4639C25.4795 47.1326 26.0217 47.6749 26.6904 47.6749C27.3591 47.6749 27.9013 47.1326 27.9013 46.4639V44.3258H36.7403V51.4729ZM50.9359 41.5087C50.9215 41.527 50.907 41.5446 50.8919 41.5618C50.8829 41.572 50.874 41.5821 50.8645 41.5919C50.8479 41.6092 50.8306 41.6258 50.813 41.6419C50.8041 41.6499 50.7955 41.6582 50.7864 41.666C50.7617 41.6869 50.7361 41.7067 50.7094 41.7251C50.7066 41.727 50.704 41.7293 50.7012 41.7312C50.6714 41.7515 50.6404 41.7698 50.6085 41.7867C50.599 41.7918 50.5889 41.796 50.5792 41.8009C50.5564 41.8121 50.5332 41.8228 50.5095 41.8322C50.4973 41.8371 50.4848 41.8414 50.4723 41.8459C50.4498 41.8539 50.4269 41.8611 50.4037 41.8674C50.3907 41.8709 50.3776 41.8744 50.3645 41.8774C50.3397 41.8831 50.3145 41.8876 50.2891 41.8913C50.2772 41.8932 50.2656 41.8953 50.2536 41.8968C50.2162 41.901 50.1782 41.9037 50.1397 41.9037H39.1627H36.7408H27.9018V37.8754L33.5582 34.6126L34.362 35.0763C34.9579 35.4201 35.626 35.5919 36.2942 35.5919C36.4434 35.5919 36.5925 35.582 36.7408 35.5649C37.257 35.5053 37.7637 35.3434 38.2266 35.0764L39.0303 34.6128L39.1627 34.6892L50.9508 41.4888C50.9459 41.4955 50.9409 41.5021 50.9359 41.5087ZM51.1427 38.8039L41.4534 33.2149L51.1427 27.6258V38.8039Z" fill="#46AC4A"/>
  <path d="M21.1152 57.947H24.1385C24.8071 57.947 25.3494 57.4048 25.3494 56.7361C25.3494 56.0674 24.8071 55.5251 24.1385 55.5251H21.1152C20.4466 55.5251 19.9043 56.0674 19.9043 56.7361C19.9043 57.4048 20.4466 57.947 21.1152 57.947Z" fill="#46AC4A"/>
  <path d="M47.467 46.4999H44.803C44.1343 46.4999 43.592 47.0421 43.592 47.7108C43.592 48.3795 44.1343 48.9217 44.803 48.9217H47.467C48.1357 48.9217 48.678 48.3795 48.678 47.7108C48.678 47.0421 48.1357 46.4999 47.467 46.4999Z" fill="#46AC4A"/>
  <path d="M54.6976 17.3972H42.1389C41.4702 17.3972 40.928 17.9394 40.928 18.6081C40.928 19.2768 41.4702 19.819 42.1389 19.819H54.6976C55.3664 19.819 55.9086 19.2768 55.9086 18.6081C55.9086 17.9394 55.3663 17.3972 54.6976 17.3972Z" fill="#46AC4A"/>
  <path d="M26.018 16.2239C26.0834 16.2675 26.1536 16.3051 26.2275 16.3353C26.3001 16.3656 26.3763 16.3886 26.4539 16.4044C26.5314 16.4201 26.6114 16.4286 26.6901 16.4286C26.7687 16.4286 26.8487 16.4201 26.9261 16.4044C27.0037 16.3886 27.08 16.3656 27.1525 16.3353C27.2264 16.3051 27.2966 16.2675 27.362 16.2239C27.4286 16.1805 27.4904 16.1296 27.5461 16.0739C27.6018 16.0182 27.6526 15.9563 27.6962 15.8897C27.7398 15.8243 27.7774 15.7541 27.8076 15.6803C27.8379 15.6076 27.8621 15.5314 27.8767 15.4539C27.8924 15.3763 27.9009 15.2964 27.9009 15.2178C27.9009 15.1391 27.8924 15.059 27.8767 14.9804C27.8621 14.9028 27.8379 14.8265 27.8076 14.754C27.7774 14.6814 27.7398 14.6111 27.6962 14.5457C27.6526 14.479 27.6018 14.4172 27.5461 14.3615C27.4904 14.3058 27.4286 14.255 27.362 14.2101C27.2966 14.1667 27.2264 14.129 27.1525 14.0987C27.0799 14.0685 27.0037 14.0456 26.9261 14.0297C26.7712 13.9982 26.6101 13.9982 26.4539 14.0297C26.3763 14.0456 26.3 14.0685 26.2275 14.0987C26.1536 14.129 26.0834 14.1667 26.018 14.2101C25.9514 14.255 25.8896 14.3058 25.8339 14.3615C25.7782 14.4172 25.7274 14.479 25.6838 14.5457C25.6403 14.6111 25.6026 14.6813 25.5724 14.754C25.5421 14.8266 25.5179 14.9028 25.5033 14.9804C25.4876 15.059 25.4792 15.1391 25.4792 15.2178C25.4792 15.5362 25.6087 15.8487 25.8341 16.0739C25.8898 16.1296 25.9515 16.1805 26.018 16.2239Z" fill="#46AC4A"/>
  <path d="M27.8391 4.05273H17.4143C16.7456 4.05273 16.2034 4.59499 16.2034 5.26367C16.2034 5.93235 16.7456 6.47461 17.4143 6.47461H27.8391C28.5078 6.47461 29.0501 5.93235 29.0501 5.26367C29.0501 4.59499 28.5079 4.05273 27.8391 4.05273Z" fill="#46AC4A"/>
</svg>
