<svg width="62" height="62" viewBox="0 0 62 62" fill="none" xmlns="http://www.w3.org/2000/svg">
  <path d="M55.4423 2.98059H6.55771C2.94173 2.98059 0 5.92244 0 9.5383V36.3652V40.5383C0 44.1542 2.94173 47.096 6.55771 47.096H22.3918L20.4841 56.6344H14.3077C13.6492 56.6344 13.1154 57.1682 13.1154 57.8267C13.1154 58.4852 13.6492 59.019 14.3077 59.019H47.6923C48.3508 59.019 48.8846 58.4852 48.8846 57.8267C48.8846 57.1682 48.3508 56.6344 47.6923 56.6344H41.5159L39.6082 47.096H55.4423C59.0582 47.096 62 44.1543 62 40.5383V36.3652V9.5383C62 5.92244 59.0583 2.98059 55.4423 2.98059ZM22.9159 56.6344L24.8236 47.096H37.1764L39.0841 56.6344H22.9159ZM59.6154 40.5383C59.6154 42.8393 57.7434 44.7114 55.4423 44.7114H6.55771C4.25669 44.7114 2.38458 42.8394 2.38458 40.5383V37.5576H59.6153V40.5383H59.6154ZM59.6154 35.173H2.38458V32.7884H9.53843C10.1969 32.7884 10.7307 32.2546 10.7307 31.5961C10.7307 30.9376 10.1969 30.4038 9.53843 30.4038H2.38458V9.5383C2.38458 7.23728 4.25657 5.36517 6.55771 5.36517H55.4423C57.7433 5.36517 59.6154 7.23716 59.6154 9.5383V35.173Z" fill="#46AC4A"/>
  <path d="M30.9998 38.75C29.685 38.75 28.6152 39.8197 28.6152 41.1346C28.6152 42.4494 29.685 43.5192 30.9998 43.5192C32.3146 43.5192 33.3844 42.4494 33.3844 41.1346C33.3844 39.8197 32.3146 38.75 30.9998 38.75Z" fill="#46AC4A"/>
  <path d="M14.2838 31.3636C14.2695 31.2873 14.2457 31.2122 14.2159 31.1395C14.1861 31.0679 14.1492 30.9987 14.1062 30.9343C14.0633 30.8687 14.0132 30.8079 13.9583 30.753C13.9035 30.6982 13.8427 30.6482 13.777 30.6052C13.7126 30.5623 13.6435 30.5253 13.5708 30.4955C13.4993 30.4657 13.4242 30.4418 13.3479 30.4275C13.1941 30.3965 13.0367 30.3965 12.8829 30.4275C12.8066 30.4418 12.7315 30.4657 12.66 30.4955C12.5872 30.5253 12.518 30.5622 12.4537 30.6052C12.3881 30.6481 12.3273 30.6982 12.2725 30.753C12.2176 30.8079 12.1676 30.8687 12.1246 30.9343C12.0817 30.9987 12.0447 31.0679 12.0149 31.1395C11.9851 31.2122 11.9612 31.2873 11.947 31.3636C11.9315 31.4399 11.9231 31.5186 11.9231 31.5961C11.9231 31.6736 11.9315 31.7523 11.947 31.8286C11.9612 31.9049 11.9851 31.98 12.0149 32.0515C12.0447 32.1243 12.0816 32.1935 12.1246 32.2578C12.1675 32.3234 12.2176 32.3842 12.2725 32.439C12.3273 32.4939 12.3881 32.5439 12.4537 32.5869C12.5182 32.6298 12.5873 32.6668 12.66 32.6966C12.7315 32.7264 12.8066 32.7502 12.8829 32.7657C12.9592 32.7812 13.0379 32.7884 13.1154 32.7884C13.1929 32.7884 13.2716 32.7812 13.3479 32.7657C13.4242 32.7502 13.4993 32.7264 13.5708 32.6966C13.6436 32.6668 13.7127 32.6299 13.777 32.5869C13.8427 32.544 13.9035 32.4939 13.9583 32.439C14.0132 32.3842 14.0632 32.3234 14.1062 32.2578C14.149 32.1933 14.1861 32.1242 14.2159 32.0515C14.2457 31.98 14.2695 31.9049 14.2838 31.8286C14.2993 31.7523 14.3077 31.6736 14.3077 31.5961C14.3077 31.5186 14.2993 31.4399 14.2838 31.3636Z" fill="#46AC4A"/>
  <path d="M26.0921 20.8292C25.6266 20.3636 24.8717 20.3636 24.406 20.8292L23.2137 22.0215C22.7481 22.4871 22.7481 23.2422 23.2137 23.7078C23.4466 23.9406 23.7517 24.057 24.0568 24.057C24.3618 24.057 24.6671 23.9406 24.8998 23.7078L26.0921 22.5155C26.5577 22.05 26.5577 21.295 26.0921 20.8292Z" fill="#46AC4A"/>
  <path d="M23.7676 16.9032H22.0815C21.4229 16.9032 20.8892 17.437 20.8892 18.0955C20.8892 18.754 21.4229 19.2878 22.0815 19.2878H23.7676C24.4261 19.2878 24.9598 18.754 24.9598 18.0955C24.9598 17.437 24.4261 16.9032 23.7676 16.9032Z" fill="#46AC4A"/>
  <path d="M40.7616 25.8153L38.2323 23.286L40.34 21.1784C40.6465 20.8719 40.7625 20.4232 40.643 20.0066C40.5235 19.59 40.1873 19.271 39.765 19.1734L28.8048 16.6442C28.4043 16.552 27.9844 16.6721 27.6935 16.9629C27.4029 17.2536 27.2824 17.6734 27.3748 18.0741L29.9043 29.0342C30.0018 29.4565 30.3207 29.7928 30.7374 29.9123C31.1542 30.0317 31.6026 29.9157 31.9092 29.6093L34.0169 27.5015L36.5462 30.0308C36.779 30.2637 37.0842 30.3801 37.3892 30.3801C37.6943 30.3801 37.9995 30.2637 38.2323 30.0308L40.7616 27.5015C41.227 27.0359 41.227 26.281 40.7616 25.8153ZM37.3892 27.5015L34.8599 24.9723C34.6271 24.7394 34.3219 24.623 34.0169 24.623C33.7118 24.623 33.4066 24.7394 33.1738 24.9723L31.7442 26.402L30.1276 19.3969L37.1327 21.0133L35.703 22.443C35.2374 22.9086 35.2374 23.6636 35.703 24.1292L38.2323 26.6585L37.3892 27.5015Z" fill="#46AC4A"/>
  <path d="M34.4384 12.483C33.9728 12.0174 33.2179 12.0174 32.7522 12.483L31.5599 13.6753C31.0943 14.1409 31.0943 14.8959 31.5599 15.3615C31.7928 15.5944 32.0979 15.7107 32.4031 15.7107C32.7082 15.7107 33.0134 15.5944 33.2461 15.3615L34.4384 14.1692C34.904 13.7037 34.904 12.9487 34.4384 12.483Z" fill="#46AC4A"/>
  <path d="M26.092 13.6753L24.8997 12.483C24.4341 12.0174 23.6791 12.0174 23.2135 12.483C22.7479 12.9486 22.7479 13.7035 23.2135 14.1692L24.4059 15.3615C24.6387 15.5944 24.9439 15.7107 25.2489 15.7107C25.554 15.7107 25.8592 15.5944 26.092 15.3615C26.5576 14.896 26.5576 14.141 26.092 13.6753Z" fill="#46AC4A"/>
  <path d="M28.8263 10.1582C28.1678 10.1582 27.634 10.692 27.634 11.3505V13.0366C27.634 13.6951 28.1678 14.2289 28.8263 14.2289C29.4848 14.2289 30.0186 13.6951 30.0186 13.0366V11.3505C30.0186 10.692 29.4848 10.1582 28.8263 10.1582Z" fill="#46AC4A"/>
</svg>
