<svg width="16" height="16" viewBox="0 0 16 16" fill="none" xmlns="http://www.w3.org/2000/svg">
<path d="M8.75 5C9.34674 5 9.91903 5.23705 10.341 5.65901C10.7629 6.08097 11 6.65326 11 7.25C11 7.44891 11.079 7.63968 11.2197 7.78033C11.3603 7.92098 11.5511 8 11.75 8C11.9489 8 12.1397 7.92098 12.2803 7.78033C12.421 7.63968 12.5 7.44891 12.5 7.25C12.5 6.25544 12.1049 5.30161 11.4017 4.59835C10.6984 3.89509 9.74456 3.5 8.75 3.5C8.55109 3.5 8.36032 3.57902 8.21967 3.71967C8.07902 3.86032 8 4.05109 8 4.25C8 4.44891 8.07902 4.63968 8.21967 4.78033C8.36032 4.92098 8.55109 5 8.75 5Z" fill="#004B94"/>
<path d="M8.75 2C10.1424 2 11.4777 2.55312 12.4623 3.53769C13.4469 4.52226 14 5.85761 14 7.25C14 7.44891 14.079 7.63968 14.2197 7.78033C14.3603 7.92098 14.5511 8 14.75 8C14.9489 8 15.1397 7.92098 15.2803 7.78033C15.421 7.63968 15.5 7.44891 15.5 7.25C15.5 5.45979 14.7888 3.7429 13.523 2.47703C12.2571 1.21116 10.5402 0.5 8.75 0.5C8.55109 0.5 8.36032 0.579018 8.21967 0.71967C8.07902 0.860322 8 1.05109 8 1.25C8 1.44891 8.07902 1.63968 8.21967 1.78033C8.36032 1.92098 8.55109 2 8.75 2ZM15.3125 10.9325C15.2712 10.8121 15.2 10.7042 15.1056 10.6189C15.0111 10.5336 14.8965 10.4738 14.7725 10.445L10.2725 9.4175C10.1504 9.3898 10.0232 9.39314 9.90269 9.4272C9.78216 9.46126 9.67208 9.52497 9.5825 9.6125C9.4775 9.71 9.47 9.7175 8.9825 10.6475C7.3649 9.90212 6.06875 8.60064 5.33 6.98C6.2825 6.5 6.29 6.5 6.3875 6.3875C6.47503 6.29792 6.53874 6.18784 6.5728 6.06731C6.60686 5.94679 6.6102 5.81965 6.5825 5.6975L5.555 1.25C5.52623 1.12602 5.46639 1.0114 5.38111 0.916934C5.29582 0.822464 5.1879 0.751252 5.0675 0.71C4.89235 0.647442 4.71148 0.602225 4.5275 0.575C4.33794 0.531046 4.1445 0.505925 3.95 0.5C3.035 0.5 2.15748 0.863481 1.51048 1.51048C0.863481 2.15748 0.5 3.035 0.5 3.95C0.503969 7.01203 1.72211 9.94751 3.8873 12.1127C6.05249 14.2779 8.98797 15.496 12.05 15.5C12.5031 15.5 12.9517 15.4108 13.3703 15.2374C13.7888 15.064 14.1692 14.8099 14.4895 14.4895C14.8099 14.1692 15.064 13.7888 15.2374 13.3703C15.4108 12.9517 15.5 12.5031 15.5 12.05C15.5002 11.8591 15.4852 11.6685 15.455 11.48C15.4235 11.2937 15.3758 11.1105 15.3125 10.9325ZM12.05 14C9.38518 13.998 6.83008 12.9385 4.94577 11.0542C3.06146 9.16992 2.00199 6.61482 2 3.95C2.00198 3.43344 2.20806 2.93859 2.57332 2.57332C2.93859 2.20806 3.43344 2.00198 3.95 2H4.1975L5 5.48L4.595 5.69C3.95 6.0275 3.44 6.2975 3.71 6.8825C4.14967 8.12718 4.86108 9.2583 5.79255 10.1937C6.72402 11.129 7.85216 11.8451 9.095 12.29C9.725 12.545 9.9725 12.0725 10.31 11.42L10.5275 11.0075L14 11.8025V12.05C13.998 12.5666 13.7919 13.0614 13.4267 13.4267C13.0614 13.7919 12.5666 13.998 12.05 14Z" fill="#004B94"/>
</svg>
