<svg width="14" height="13" viewBox="0 0 14 13" fill="none" xmlns="http://www.w3.org/2000/svg">
  <path fill-rule="evenodd" clip-rule="evenodd" d="M12.625 4.78488V1.65988C12.625 1.3147 12.9048 1.03488 13.25 1.03488C13.5952 1.03488 13.875 1.3147 13.875 1.65988V5.40988C13.875 5.75506 13.5952 6.03488 13.25 6.03488H9.5C9.15482 6.03488 8.875 5.75506 8.875 5.40988C8.875 5.0647 9.15482 4.78488 9.5 4.78488H12.625Z" fill="#E64C66"/>
  <path fill-rule="evenodd" clip-rule="evenodd" d="M11.0919 8.32667C11.2069 8.00121 11.5639 7.83058 11.8894 7.94557C12.2148 8.06055 12.3855 8.41761 12.2705 8.74307C11.3431 11.3679 8.79153 13.063 6.01243 12.9004C3.23334 12.7378 0.896791 10.7568 0.281838 8.04172C-0.333115 5.32664 0.921788 2.53215 3.35961 1.18796C5.79743 -0.156232 8.8304 0.27397 10.7846 2.22986L13.6784 4.95486C13.9297 5.1915 13.9416 5.58705 13.7049 5.83835C13.4683 6.08964 13.0727 6.10152 12.8214 5.86488L9.91409 3.12667C8.33981 1.55139 5.91343 1.20723 3.96317 2.28258C2.01292 3.35794 1.009 5.59353 1.50096 7.76559C1.99292 9.93766 3.86216 11.5225 6.08543 11.6526C8.30871 11.7826 10.35 10.4266 11.0919 8.32667Z" fill="#E64C66"/>
</svg>
