<svg width="18" height="18" viewBox="0 0 18 18" fill="none" xmlns="http://www.w3.org/2000/svg">
<path d="M13.3191 10.343C13.2841 10.3261 11.9718 9.67995 11.7387 9.59603C11.6435 9.56186 11.5415 9.52846 11.433 9.52846C11.2558 9.52846 11.107 9.61677 10.991 9.79023C10.8599 9.98507 10.4631 10.4489 10.3405 10.5875C10.3245 10.6058 10.3027 10.6277 10.2896 10.6277C10.2778 10.6277 10.0747 10.544 10.0132 10.5173C8.60554 9.90586 7.53707 8.43542 7.39054 8.18746C7.36962 8.15181 7.36874 8.13564 7.36856 8.13564C7.3737 8.11676 7.42105 8.0693 7.44549 8.04483C7.51696 7.97413 7.59441 7.8809 7.66933 7.79072C7.7048 7.74801 7.74034 7.70522 7.77522 7.6649C7.88392 7.53844 7.9323 7.44025 7.9884 7.32652L8.01779 7.26742C8.1548 6.99524 8.0378 6.7656 7.99997 6.69142C7.96893 6.62937 7.41487 5.2921 7.35594 5.15162C7.21426 4.81261 7.02709 4.65475 6.76697 4.65475C6.74282 4.65475 6.76697 4.65475 6.66576 4.65901C6.5425 4.66421 5.8713 4.75256 5.57454 4.93966C5.25982 5.13808 4.72742 5.77051 4.72742 6.88278C4.72742 7.88382 5.36269 8.82899 5.63543 9.18846C5.64222 9.19753 5.65466 9.21592 5.67273 9.24236C6.71726 10.7678 8.01941 11.8983 9.33942 12.4256C10.6103 12.9332 11.212 12.9919 11.5541 12.9919C11.5542 12.9919 11.5542 12.9919 11.5542 12.9919C11.6979 12.9919 11.813 12.9806 11.9145 12.9706L11.979 12.9645C12.4179 12.9256 13.3827 12.4256 13.6022 11.8158C13.775 11.3355 13.8206 10.8107 13.7056 10.6202C13.6268 10.4906 13.491 10.4255 13.3191 10.343Z" fill="white"/>
<path d="M9.15979 0C4.28481 0 0.318733 3.93627 0.318733 8.77458C0.318733 10.3395 0.737514 11.8713 1.53089 13.2119L0.0123818 17.6912C-0.015919 17.7747 0.00513961 17.867 0.0669091 17.9299C0.111522 17.9755 0.171991 18 0.233761 18C0.257421 18 0.281257 17.9965 0.30453 17.989L4.97518 16.5048C6.25328 17.1877 7.69785 17.5482 9.15982 17.5482C14.0343 17.5482 18 13.6124 18 8.77458C18 3.93627 14.0343 0 9.15979 0ZM9.15979 15.7204C7.78413 15.7204 6.45174 15.3232 5.30638 14.5716C5.26789 14.5463 5.22317 14.5333 5.17817 14.5333C5.15437 14.5333 5.13053 14.537 5.10733 14.5444L2.76761 15.2881L3.52291 13.0598C3.54734 12.9877 3.53511 12.9081 3.49011 12.8466C2.61792 11.6549 2.15688 10.2469 2.15688 8.77458C2.15688 4.94413 5.29833 1.82781 9.15968 1.82781C13.0206 1.82781 16.1617 4.94413 16.1617 8.77458C16.1618 12.6046 13.0207 15.7204 9.15979 15.7204Z" fill="white"/>
</svg>
