<svg width="37" height="33" viewBox="0 0 37 33" fill="none" xmlns="http://www.w3.org/2000/svg">
<path fill-rule="evenodd" clip-rule="evenodd" d="M25.3717 30.2626C30.9026 28.3143 35.2241 23.8638 35.2241 16.9121C35.2241 9.96081 30.9026 5.51008 25.3715 3.5619C23.2059 2.79898 20.8537 2.41759 18.4998 2.41759C16.1459 2.41759 13.7937 2.79898 11.628 3.5619C6.0971 5.51008 1.77567 9.96081 1.77567 16.9121C1.77567 23.8638 6.0971 28.3143 11.6283 30.2626C13.7938 31.0256 16.1461 31.4072 18.5 31.4072C20.8538 31.4072 23.206 31.0256 25.3717 30.2626ZM37 16.9126C37 38.3624 0 38.3624 0 16.9126C0 -4.53728 37 -4.53728 37 16.9126ZM36.0325 16.9121C36.0325 24.2597 31.4744 28.9607 25.64 31.0159C23.3861 31.8099 20.9419 32.207 18.5 32.207C16.058 32.207 13.6137 31.8099 11.3598 31.0159C5.52537 28.9607 0.967292 24.2597 0.967292 16.9121C0.967292 9.56503 5.52538 4.86394 11.3597 2.80885C13.6136 2.01461 16.0579 1.61773 18.4998 1.61773C20.9418 1.61773 23.386 2.01461 25.6399 2.80885C31.4744 4.86394 36.0325 9.56503 36.0325 16.9121Z" fill="url(#paint0_linear)"/>
<path fill-rule="evenodd" clip-rule="evenodd" d="M36.0324 16.9121C36.0324 24.2597 31.4744 28.9607 25.64 31.0159C23.3861 31.8099 20.9419 32.207 18.5 32.207C16.058 32.207 13.6137 31.8099 11.3598 31.0159C5.52537 28.9607 0.967285 24.2597 0.967285 16.9121C0.967285 9.56498 5.52537 4.86388 11.3597 2.80879C13.6136 2.01455 16.0578 1.61768 18.4997 1.61768C20.9418 1.61768 23.386 2.01455 25.6399 2.80879C31.4744 4.86388 36.0324 9.56498 36.0324 16.9121ZM25.3717 30.2626C30.9026 28.3143 35.2241 23.8638 35.2241 16.9121C35.2241 9.96076 30.9026 5.51003 25.3715 3.56184C23.2059 2.79892 20.8537 2.41753 18.4997 2.41753C16.1459 2.41753 13.7937 2.79892 11.628 3.56184C6.09709 5.51003 1.77567 9.96076 1.77567 16.9121C1.77567 23.8638 6.0971 28.3143 11.6283 30.2626C13.7938 31.0255 16.146 31.4071 18.5 31.4071C20.8538 31.4071 23.206 31.0255 25.3717 30.2626Z" fill="#FEFEFE"/>
<path fill-rule="evenodd" clip-rule="evenodd" d="M8.97006 25.5429H16.0978C20.0383 25.5429 22.6317 23.9651 22.6317 20.8086C22.6317 18.4408 21.3844 17.2822 19.3648 16.5176C20.6115 15.827 21.6595 14.7424 21.6595 12.7939C21.6595 9.55671 18.8092 8.28113 15.8985 8.28113H8.97006C8.6165 8.28113 8.32996 8.56476 8.32996 8.91471V8.91703V24.9094V24.9095C8.32996 25.2595 8.6165 25.5429 8.97006 25.5429ZM12.0714 15.2601V11.9903V11.9902C12.0715 11.7803 12.2432 11.6103 12.4554 11.6103H15.3248C16.9455 11.6103 17.8435 12.2512 17.8435 13.386C17.8435 14.7175 16.7708 15.2601 15.0755 15.2601H12.0714ZM12.0714 21.8337V18.4164H15.9731C17.9428 18.4164 18.8157 19.1318 18.8157 20.2903C18.8157 21.6222 17.7931 22.2138 16.0978 22.2138H12.4554C12.2432 22.2138 12.0714 22.0439 12.0714 21.834V21.8337ZM25.2132 25.5429H28.0298C28.3834 25.5429 28.6699 25.2595 28.6699 24.9095V24.9094V8.91471V8.91459C28.6697 8.56464 28.3834 8.28113 28.0298 8.28113H25.2132C25.0012 8.28113 24.8295 8.45116 24.8293 8.66118V25.1629C24.8293 25.373 25.0012 25.5429 25.2132 25.5429Z" fill="white"/>
<defs>
<linearGradient id="paint0_linear" x1="22.809" y1="21.4848" x2="3.90496" y2="0.995665" gradientUnits="userSpaceOnUse">
<stop stop-color="#074C89"/>
<stop offset="1" stop-color="#2F83C5"/>
</linearGradient>
</defs>
</svg>